<?xml version="1.0" encoding="utf-8"?>
<!-- Generator: Adobe Illustrator 24.0.1, SVG Export Plug-In . SVG Version: 6.00 Build 0)  -->
<svg version="1.1"
	 id="Camada_1" xmlns:cc="http://creativecommons.org/ns#" xmlns:dc="http://purl.org/dc/elements/1.1/" xmlns:inkscape="http://www.inkscape.org/namespaces/inkscape" xmlns:rdf="http://www.w3.org/1999/02/22-rdf-syntax-ns#" xmlns:sodipodi="http://sodipodi.sourceforge.net/DTD/sodipodi-0.dtd" xmlns:svg="http://www.w3.org/2000/svg"
	 xmlns="http://www.w3.org/2000/svg" xmlns:xlink="http://www.w3.org/1999/xlink" x="0px" y="0px" viewBox="0 0 100 100.3"
	 style="enable-background:new 0 0 100 100.3;" xml:space="preserve">
<style type="text/css">
	.st0{opacity:0.1;}
	.st1{fill:#FFFFFF;}
</style>
<g transform="translate(0,-952.36216)" class="st0">
	<g>
		<path class="st1" d="M12.6,959l0.9,0.3l-1.2,0.4L12.6,959z"/>
		<path class="st1" d="M13,957.1c0,0.7-0.6,1.3-1.3,1.3s-1.3-0.6-1.3-1.3s0.6-1.3,1.3-1.3S13,956.4,13,957.1z"/>
		<path class="st1" d="M13,960.6c0,0.7-0.6,1.3-1.3,1.3s-1.3-0.6-1.3-1.3s0.6-1.3,1.3-1.3S13,959.9,13,960.6z"/>
		<path class="st1" d="M13,964.1c0,0.7-0.6,1.3-1.3,1.3s-1.3-0.6-1.3-1.3s0.6-1.3,1.3-1.3S13,963.4,13,964.1z"/>
		<path class="st1" d="M16.5,960.6c0,0.7-0.6,1.3-1.3,1.3s-1.3-0.6-1.3-1.3s0.6-1.3,1.3-1.3S16.5,959.9,16.5,960.6z"/>
		<path class="st1" d="M16.5,964.1c0,0.7-0.6,1.3-1.3,1.3s-1.3-0.6-1.3-1.3s0.6-1.3,1.3-1.3S16.5,963.4,16.5,964.1z"/>
		<path class="st1" d="M20,960.6c0,0.7-0.6,1.3-1.3,1.3s-1.3-0.6-1.3-1.3s0.6-1.3,1.3-1.3S20,959.9,20,960.6z"/>
		<path class="st1" d="M20,964.1c0,0.7-0.6,1.3-1.3,1.3s-1.3-0.6-1.3-1.3s0.6-1.3,1.3-1.3S20,963.4,20,964.1z"/>
		<path class="st1" d="M20,967.6c0,0.7-0.6,1.3-1.3,1.3s-1.3-0.6-1.3-1.3s0.6-1.3,1.3-1.3S20,966.9,20,967.6z"/>
		<path class="st1" d="M20,971.1c0,0.7-0.6,1.3-1.3,1.3s-1.3-0.6-1.3-1.3s0.6-1.3,1.3-1.3S20,970.4,20,971.1z"/>
		<path class="st1" d="M23.5,960.6c0,0.7-0.6,1.3-1.3,1.3s-1.3-0.6-1.3-1.3s0.6-1.3,1.3-1.3S23.5,959.9,23.5,960.6z"/>
		<path class="st1" d="M23.5,964.1c0,0.7-0.6,1.3-1.3,1.3s-1.3-0.6-1.3-1.3s0.6-1.3,1.3-1.3S23.5,963.4,23.5,964.1z"/>
		<path class="st1" d="M23.5,967.6c0,0.7-0.6,1.3-1.3,1.3s-1.3-0.6-1.3-1.3s0.6-1.3,1.3-1.3S23.5,966.9,23.5,967.6z"/>
		<path class="st1" d="M23.5,971.1c0,0.7-0.6,1.3-1.3,1.3s-1.3-0.6-1.3-1.3s0.6-1.3,1.3-1.3S23.5,970.4,23.5,971.1z"/>
		<path class="st1" d="M27,964.1c0,0.7-0.6,1.3-1.3,1.3s-1.3-0.6-1.3-1.3s0.6-1.3,1.3-1.3S27,963.4,27,964.1z"/>
		<path class="st1" d="M27,967.6c0,0.7-0.6,1.3-1.3,1.3s-1.3-0.6-1.3-1.3s0.6-1.3,1.3-1.3S27,966.9,27,967.6z"/>
		<path class="st1" d="M27,971.1c0,0.7-0.6,1.3-1.3,1.3s-1.3-0.6-1.3-1.3s0.6-1.3,1.3-1.3S27,970.4,27,971.1z"/>
		<path class="st1" d="M27,974.6c0,0.7-0.6,1.3-1.3,1.3s-1.3-0.6-1.3-1.3s0.6-1.3,1.3-1.3S27,973.9,27,974.6z"/>
		<path class="st1" d="M30.5,971.1c0,0.7-0.6,1.3-1.3,1.3s-1.3-0.6-1.3-1.3s0.6-1.3,1.3-1.3S30.5,970.4,30.5,971.1z"/>
		<path class="st1" d="M30.5,974.6c0,0.7-0.6,1.3-1.3,1.3s-1.3-0.6-1.3-1.3s0.6-1.3,1.3-1.3S30.5,973.9,30.5,974.6z"/>
		<path class="st1" d="M34,967.6c0,0.7-0.6,1.3-1.3,1.3s-1.3-0.6-1.3-1.3s0.6-1.3,1.3-1.3S34,966.9,34,967.6z"/>
		<path class="st1" d="M34,971.1c0,0.7-0.6,1.3-1.3,1.3s-1.3-0.6-1.3-1.3s0.6-1.3,1.3-1.3S34,970.4,34,971.1z"/>
		<path class="st1" d="M34,974.6c0,0.7-0.6,1.3-1.3,1.3s-1.3-0.6-1.3-1.3s0.6-1.3,1.3-1.3S34,973.9,34,974.6z"/>
		<path class="st1" d="M37.5,967.6c0,0.7-0.6,1.3-1.3,1.3s-1.3-0.6-1.3-1.3s0.6-1.3,1.3-1.3S37.5,966.9,37.5,967.6z"/>
		<path class="st1" d="M37.5,974.6c0,0.7-0.6,1.3-1.3,1.3s-1.3-0.6-1.3-1.3s0.6-1.3,1.3-1.3S37.5,973.9,37.5,974.6z"/>
		<path class="st1" d="M37.5,978.1c0,0.7-0.6,1.3-1.3,1.3s-1.3-0.6-1.3-1.3s0.6-1.3,1.3-1.3S37.5,977.4,37.5,978.1z"/>
		<path class="st1" d="M41,964.1c0,0.7-0.6,1.3-1.3,1.3s-1.3-0.6-1.3-1.3s0.6-1.3,1.3-1.3S41,963.4,41,964.1z"/>
		<path class="st1" d="M41,974.6c0,0.7-0.6,1.3-1.3,1.3s-1.3-0.6-1.3-1.3s0.6-1.3,1.3-1.3S41,973.9,41,974.6z"/>
		<path class="st1" d="M41,978.1c0,0.7-0.6,1.3-1.3,1.3s-1.3-0.6-1.3-1.3s0.6-1.3,1.3-1.3S41,977.4,41,978.1z"/>
		<path class="st1" d="M41,981.6c0,0.7-0.6,1.3-1.3,1.3s-1.3-0.6-1.3-1.3s0.6-1.3,1.3-1.3S41,980.9,41,981.6z"/>
		<path class="st1" d="M41,992.1c0,0.7-0.6,1.3-1.3,1.3s-1.3-0.6-1.3-1.3s0.6-1.3,1.3-1.3S41,991.4,41,992.1z"/>
		<path class="st1" d="M41,995.6c0,0.7-0.6,1.3-1.3,1.3s-1.3-0.6-1.3-1.3s0.6-1.3,1.3-1.3S41,994.9,41,995.6z"/>
		<path class="st1" d="M41,999.1c0,0.7-0.6,1.3-1.3,1.3s-1.3-0.6-1.3-1.3s0.6-1.3,1.3-1.3S41,998.4,41,999.1z"/>
		<path class="st1" d="M44.5,964.1c0,0.7-0.6,1.3-1.3,1.3s-1.3-0.6-1.3-1.3s0.6-1.3,1.3-1.3S44.5,963.4,44.5,964.1z"/>
		<path class="st1" d="M44.5,967.6c0,0.7-0.6,1.3-1.3,1.3s-1.3-0.6-1.3-1.3s0.6-1.3,1.3-1.3S44.5,966.9,44.5,967.6z"/>
		<path class="st1" d="M44.5,981.6c0,0.7-0.6,1.3-1.3,1.3s-1.3-0.6-1.3-1.3s0.6-1.3,1.3-1.3S44.5,980.9,44.5,981.6z"/>
		<path class="st1" d="M44.5,985.1c0,0.7-0.6,1.3-1.3,1.3s-1.3-0.6-1.3-1.3s0.6-1.2,1.3-1.2S44.5,984.4,44.5,985.1z"/>
		<path class="st1" d="M44.5,988.6c0,0.7-0.6,1.3-1.3,1.3s-1.3-0.6-1.3-1.3s0.6-1.3,1.3-1.3S44.5,987.9,44.5,988.6z"/>
		<path class="st1" d="M44.5,992.1c0,0.7-0.6,1.3-1.3,1.3s-1.3-0.6-1.3-1.3s0.6-1.3,1.3-1.3S44.5,991.4,44.5,992.1z"/>
		<path class="st1" d="M44.5,995.6c0,0.7-0.6,1.3-1.3,1.3s-1.3-0.6-1.3-1.3s0.6-1.3,1.3-1.3S44.5,994.9,44.5,995.6z"/>
		<path class="st1" d="M44.5,999.1c0,0.7-0.6,1.3-1.3,1.3s-1.3-0.6-1.3-1.3s0.6-1.3,1.3-1.3S44.5,998.4,44.5,999.1z"/>
		<path class="st1" d="M44.5,1002.6c0,0.7-0.6,1.3-1.3,1.3s-1.3-0.6-1.3-1.3s0.6-1.3,1.3-1.3l0,0
			C43.9,1001.4,44.5,1001.9,44.5,1002.6L44.5,1002.6z"/>
		<path class="st1" d="M48,967.6c0,0.7-0.6,1.3-1.3,1.3s-1.3-0.6-1.3-1.3s0.6-1.3,1.3-1.3S48,966.9,48,967.6z"/>
		<path class="st1" d="M48,971.1c0,0.7-0.6,1.3-1.3,1.3s-1.3-0.6-1.3-1.3s0.6-1.3,1.3-1.3S48,970.4,48,971.1z"/>
		<path class="st1" d="M48,978.1c0,0.7-0.6,1.3-1.3,1.3s-1.3-0.6-1.3-1.3s0.6-1.3,1.3-1.3S48,977.4,48,978.1z"/>
		<path class="st1" d="M48,981.6c0,0.7-0.6,1.3-1.3,1.3s-1.3-0.6-1.3-1.3s0.6-1.3,1.3-1.3S48,980.9,48,981.6z"/>
		<path class="st1" d="M48,985.1c0,0.7-0.6,1.3-1.3,1.3s-1.3-0.6-1.3-1.3s0.6-1.2,1.3-1.2S48,984.4,48,985.1z"/>
		<path class="st1" d="M48,988.6c0,0.7-0.6,1.3-1.3,1.3s-1.3-0.6-1.3-1.3s0.6-1.3,1.3-1.3S48,987.9,48,988.6z"/>
		<path class="st1" d="M48,992.1c0,0.7-0.6,1.3-1.3,1.3s-1.3-0.6-1.3-1.3s0.6-1.3,1.3-1.3S48,991.4,48,992.1z"/>
		<path class="st1" d="M48,995.6c0,0.7-0.6,1.3-1.3,1.3s-1.3-0.6-1.3-1.3s0.6-1.3,1.3-1.3S48,994.9,48,995.6z"/>
		<path class="st1" d="M48,999.1c0,0.7-0.6,1.3-1.3,1.3s-1.3-0.6-1.3-1.3s0.6-1.3,1.3-1.3S48,998.4,48,999.1z"/>
		<path class="st1" d="M48,1002.6c0,0.7-0.6,1.3-1.3,1.3s-1.3-0.6-1.3-1.3s0.6-1.3,1.3-1.3l0,0C47.4,1001.4,48,1001.9,48,1002.6
			L48,1002.6z"/>
		<path class="st1" d="M48,1006.1c0,0.7-0.6,1.3-1.3,1.3s-1.3-0.6-1.3-1.3s0.6-1.3,1.3-1.3S48,1005.4,48,1006.1z"/>
		<path class="st1" d="M51.5,967.6c0,0.7-0.6,1.3-1.3,1.3s-1.3-0.6-1.3-1.3s0.6-1.3,1.3-1.3S51.5,966.9,51.5,967.6z"/>
		<path class="st1" d="M51.5,971.1c0,0.7-0.6,1.3-1.3,1.3s-1.3-0.6-1.3-1.3s0.6-1.3,1.3-1.3S51.5,970.4,51.5,971.1z"/>
		<path class="st1" d="M51.5,978.1c0,0.7-0.6,1.3-1.3,1.3s-1.3-0.6-1.3-1.3s0.6-1.3,1.3-1.3S51.5,977.4,51.5,978.1z"/>
		<path class="st1" d="M51.5,981.6c0,0.7-0.6,1.3-1.3,1.3s-1.3-0.6-1.3-1.3s0.6-1.3,1.3-1.3S51.5,980.9,51.5,981.6z"/>
		<path class="st1" d="M51.5,985.1c0,0.7-0.6,1.3-1.3,1.3s-1.3-0.6-1.3-1.3s0.6-1.2,1.3-1.2S51.5,984.4,51.5,985.1z"/>
		<path class="st1" d="M51.5,988.6c0,0.7-0.6,1.3-1.3,1.3s-1.3-0.6-1.3-1.3s0.6-1.3,1.3-1.3S51.5,987.9,51.5,988.6z"/>
		<path class="st1" d="M51.5,992.1c0,0.7-0.6,1.3-1.3,1.3s-1.3-0.6-1.3-1.3s0.6-1.3,1.3-1.3S51.5,991.4,51.5,992.1z"/>
		<path class="st1" d="M51.5,995.6c0,0.7-0.6,1.3-1.3,1.3s-1.3-0.6-1.3-1.3s0.6-1.3,1.3-1.3S51.5,994.9,51.5,995.6z"/>
		<path class="st1" d="M51.5,999.1c0,0.7-0.6,1.3-1.3,1.3s-1.3-0.6-1.3-1.3s0.6-1.3,1.3-1.3S51.5,998.4,51.5,999.1z"/>
		<path class="st1" d="M51.5,1002.6c0,0.7-0.6,1.3-1.3,1.3s-1.3-0.6-1.3-1.3s0.6-1.3,1.3-1.3l0,0
			C50.9,1001.4,51.5,1001.9,51.5,1002.6L51.5,1002.6z"/>
		<path class="st1" d="M51.5,1006.1c0,0.7-0.6,1.3-1.3,1.3s-1.3-0.6-1.3-1.3s0.6-1.3,1.3-1.3S51.5,1005.4,51.5,1006.1z"/>
		<path class="st1" d="M51.5,1009.6c0,0.7-0.6,1.3-1.3,1.3s-1.3-0.6-1.3-1.3s0.6-1.3,1.2-1.3l0,0
			C50.9,1008.4,51.5,1008.9,51.5,1009.6L51.5,1009.6z"/>
		<path class="st1" d="M51.5,1023.6c0,0.7-0.6,1.3-1.3,1.3l0,0c-0.7,0-1.3-0.6-1.3-1.3l0,0c0-0.7,0.6-1.3,1.3-1.3
			S51.5,1022.9,51.5,1023.6z"/>
		<path class="st1" d="M51.5,1027.1c0,0.7-0.6,1.3-1.3,1.3s-1.3-0.6-1.3-1.3s0.6-1.3,1.3-1.3S51.5,1026.4,51.5,1027.1z"/>
		<path class="st1" d="M51.5,1030.6c0,0.7-0.6,1.3-1.3,1.3s-1.3-0.6-1.3-1.3s0.6-1.3,1.3-1.3S51.5,1029.9,51.5,1030.6z"/>
		<path class="st1" d="M51.5,1034.1c0,0.7-0.6,1.3-1.3,1.3s-1.3-0.6-1.3-1.3s0.6-1.3,1.3-1.3S51.5,1033.4,51.5,1034.1z"/>
		<path class="st1" d="M51.5,1037.6c0,0.7-0.6,1.3-1.3,1.3s-1.3-0.6-1.3-1.3s0.6-1.3,1.3-1.3S51.5,1036.9,51.5,1037.6z"/>
		<path class="st1" d="M51.5,1041.1c0,0.7-0.6,1.3-1.3,1.3s-1.3-0.6-1.3-1.3s0.6-1.3,1.3-1.3S51.5,1040.4,51.5,1041.1z"/>
		<path class="st1" d="M51.5,1044.6c0,0.7-0.6,1.3-1.3,1.3s-1.3-0.6-1.3-1.3s0.6-1.3,1.3-1.3S51.5,1043.9,51.5,1044.6z"/>
		<path class="st1" d="M55,967.6c0,0.7-0.6,1.3-1.3,1.3s-1.3-0.6-1.3-1.3s0.6-1.3,1.3-1.3S55,966.9,55,967.6z"/>
		<path class="st1" d="M55,971.1c0,0.7-0.6,1.3-1.3,1.3s-1.3-0.6-1.3-1.3s0.6-1.3,1.3-1.3S55,970.4,55,971.1z"/>
		<path class="st1" d="M55,978.1c0,0.7-0.6,1.3-1.3,1.3s-1.3-0.6-1.3-1.3s0.6-1.3,1.3-1.3S55,977.4,55,978.1z"/>
		<path class="st1" d="M55,981.6c0,0.7-0.6,1.3-1.3,1.3s-1.3-0.6-1.3-1.3s0.6-1.3,1.3-1.3S55,980.9,55,981.6z"/>
		<path class="st1" d="M55,985.1c0,0.7-0.6,1.3-1.3,1.3s-1.3-0.6-1.3-1.3s0.6-1.2,1.3-1.2S55,984.4,55,985.1z"/>
		<path class="st1" d="M55,988.6c0,0.7-0.6,1.3-1.3,1.3s-1.3-0.6-1.3-1.3s0.6-1.3,1.3-1.3S55,987.9,55,988.6z"/>
		<path class="st1" d="M55,992.1c0,0.7-0.6,1.3-1.3,1.3s-1.3-0.6-1.3-1.3s0.6-1.3,1.3-1.3S55,991.4,55,992.1z"/>
		<path class="st1" d="M55,995.6c0,0.7-0.6,1.3-1.3,1.3s-1.3-0.6-1.3-1.3s0.6-1.3,1.3-1.3S55,994.9,55,995.6z"/>
		<path class="st1" d="M55,999.1c0,0.7-0.6,1.3-1.3,1.3s-1.3-0.6-1.3-1.3s0.6-1.3,1.3-1.3S55,998.4,55,999.1z"/>
		<path class="st1" d="M55,1002.6c0,0.7-0.6,1.3-1.3,1.3s-1.3-0.6-1.3-1.3s0.6-1.3,1.3-1.3l0,0C54.4,1001.4,55,1001.9,55,1002.6
			L55,1002.6z"/>
		<path class="st1" d="M55,1006.1c0,0.7-0.6,1.3-1.3,1.3s-1.3-0.6-1.3-1.3s0.6-1.3,1.3-1.3S55,1005.4,55,1006.1z"/>
		<path class="st1" d="M55,1009.6c0,0.7-0.6,1.3-1.3,1.3s-1.3-0.6-1.3-1.3s0.6-1.3,1.2-1.3l0,0C54.4,1008.4,55,1008.9,55,1009.6
			L55,1009.6z"/>
		<path class="st1" d="M55,1013.1c0,0.7-0.6,1.3-1.3,1.3l0,0c-0.7,0-1.3-0.6-1.3-1.3l0,0c0-0.7,0.6-1.3,1.3-1.3S55,1012.4,55,1013.1
			z"/>
		<path class="st1" d="M55,1016.6c0,0.7-0.6,1.3-1.3,1.3s-1.3-0.6-1.3-1.3s0.6-1.3,1.3-1.3S55,1015.9,55,1016.6z"/>
		<path class="st1" d="M55,1020.1c0,0.7-0.6,1.3-1.3,1.3s-1.3-0.6-1.3-1.3s0.6-1.3,1.3-1.3S55,1019.4,55,1020.1z"/>
		<path class="st1" d="M55,1023.6c0,0.7-0.6,1.3-1.3,1.3l0,0c-0.7,0-1.3-0.6-1.3-1.3l0,0c0-0.7,0.6-1.3,1.3-1.3S55,1022.9,55,1023.6
			z"/>
		<path class="st1" d="M55,1027.1c0,0.7-0.6,1.3-1.3,1.3s-1.3-0.6-1.3-1.3s0.6-1.3,1.3-1.3S55,1026.4,55,1027.1z"/>
		<path class="st1" d="M55,1030.6c0,0.7-0.6,1.3-1.3,1.3s-1.3-0.6-1.3-1.3s0.6-1.3,1.3-1.3S55,1029.9,55,1030.6z"/>
		<path class="st1" d="M55,1034.1c0,0.7-0.6,1.3-1.3,1.3s-1.3-0.6-1.3-1.3s0.6-1.3,1.3-1.3S55,1033.4,55,1034.1z"/>
		<path class="st1" d="M55,1037.6c0,0.7-0.6,1.3-1.3,1.3s-1.3-0.6-1.3-1.3s0.6-1.3,1.3-1.3S55,1036.9,55,1037.6z"/>
		<path class="st1" d="M55,1041.1c0,0.7-0.6,1.3-1.3,1.3s-1.3-0.6-1.3-1.3s0.6-1.3,1.3-1.3S55,1040.4,55,1041.1z"/>
		<path class="st1" d="M55,1044.6c0,0.7-0.6,1.3-1.3,1.3s-1.3-0.6-1.3-1.3s0.6-1.3,1.3-1.3S55,1043.9,55,1044.6z"/>
		<path class="st1" d="M55,1048.1c0,0.7-0.6,1.3-1.3,1.3s-1.3-0.6-1.3-1.3s0.6-1.3,1.3-1.3S55,1047.4,55,1048.1z"/>
		<path class="st1" d="M58.5,971.1c0,0.7-0.6,1.3-1.3,1.3s-1.3-0.6-1.3-1.3s0.6-1.3,1.3-1.3S58.5,970.4,58.5,971.1z"/>
		<path class="st1" d="M58.5,978.1c0,0.7-0.6,1.3-1.3,1.3s-1.3-0.6-1.3-1.3s0.6-1.3,1.3-1.3S58.5,977.4,58.5,978.1z"/>
		<path class="st1" d="M58.5,981.6c0,0.7-0.6,1.3-1.3,1.3s-1.3-0.6-1.3-1.3s0.6-1.3,1.3-1.3S58.5,980.9,58.5,981.6z"/>
		<path class="st1" d="M58.5,985.1c0,0.7-0.6,1.3-1.3,1.3s-1.3-0.6-1.3-1.3s0.6-1.2,1.3-1.2S58.5,984.4,58.5,985.1z"/>
		<path class="st1" d="M58.5,988.6c0,0.7-0.6,1.3-1.3,1.3s-1.3-0.6-1.3-1.3s0.6-1.3,1.3-1.3S58.5,987.9,58.5,988.6z"/>
		<path class="st1" d="M58.5,992.1c0,0.7-0.6,1.3-1.3,1.3s-1.3-0.6-1.3-1.3s0.6-1.3,1.3-1.3S58.5,991.4,58.5,992.1z"/>
		<path class="st1" d="M58.5,995.6c0,0.7-0.6,1.3-1.3,1.3s-1.3-0.6-1.3-1.3s0.6-1.3,1.3-1.3S58.5,994.9,58.5,995.6z"/>
		<path class="st1" d="M58.5,999.1c0,0.7-0.6,1.3-1.3,1.3s-1.3-0.6-1.3-1.3s0.6-1.3,1.3-1.3S58.5,998.4,58.5,999.1z"/>
		<path class="st1" d="M58.5,1002.6c0,0.7-0.6,1.3-1.3,1.3s-1.3-0.6-1.3-1.3s0.6-1.3,1.3-1.3l0,0
			C57.9,1001.4,58.5,1001.9,58.5,1002.6L58.5,1002.6z"/>
		<path class="st1" d="M58.5,1006.1c0,0.7-0.6,1.3-1.3,1.3s-1.3-0.6-1.3-1.3s0.6-1.3,1.3-1.3S58.5,1005.4,58.5,1006.1z"/>
		<path class="st1" d="M58.5,1009.6c0,0.7-0.6,1.3-1.3,1.3s-1.3-0.6-1.3-1.3s0.6-1.3,1.2-1.3l0,0
			C57.9,1008.4,58.5,1008.9,58.5,1009.6L58.5,1009.6z"/>
		<path class="st1" d="M58.5,1013.1c0,0.7-0.6,1.3-1.3,1.3l0,0c-0.7,0-1.3-0.6-1.3-1.3l0,0c0-0.7,0.6-1.3,1.3-1.3
			S58.5,1012.4,58.5,1013.1z"/>
		<path class="st1" d="M58.5,1016.6c0,0.7-0.6,1.3-1.3,1.3s-1.3-0.6-1.3-1.3s0.6-1.3,1.3-1.3S58.5,1015.9,58.5,1016.6z"/>
		<path class="st1" d="M58.5,1020.1c0,0.7-0.6,1.3-1.3,1.3s-1.3-0.6-1.3-1.3s0.6-1.3,1.3-1.3S58.5,1019.4,58.5,1020.1z"/>
		<path class="st1" d="M58.5,1023.6c0,0.7-0.6,1.3-1.3,1.3l0,0c-0.7,0-1.3-0.6-1.3-1.3l0,0c0-0.7,0.6-1.3,1.3-1.3
			S58.5,1022.9,58.5,1023.6z"/>
		<path class="st1" d="M58.5,1027.1c0,0.7-0.6,1.3-1.3,1.3s-1.3-0.6-1.3-1.3s0.6-1.3,1.3-1.3S58.5,1026.4,58.5,1027.1z"/>
		<path class="st1" d="M58.5,1030.6c0,0.7-0.6,1.3-1.3,1.3s-1.3-0.6-1.3-1.3s0.6-1.3,1.3-1.3S58.5,1029.9,58.5,1030.6z"/>
		<path class="st1" d="M58.5,1034.1c0,0.7-0.6,1.3-1.3,1.3s-1.3-0.6-1.3-1.3s0.6-1.3,1.3-1.3S58.5,1033.4,58.5,1034.1z"/>
		<path class="st1" d="M62,978.1c0,0.7-0.6,1.3-1.3,1.3s-1.3-0.6-1.3-1.3s0.6-1.3,1.3-1.3S62,977.4,62,978.1z"/>
		<path class="st1" d="M62,981.6c0,0.7-0.6,1.3-1.3,1.3s-1.3-0.6-1.3-1.3s0.6-1.3,1.3-1.3S62,980.9,62,981.6z"/>
		<path class="st1" d="M62,985.1c0,0.7-0.6,1.3-1.3,1.3s-1.3-0.6-1.3-1.3s0.6-1.2,1.3-1.2S62,984.4,62,985.1z"/>
		<path class="st1" d="M62,988.6c0,0.7-0.6,1.3-1.3,1.3s-1.3-0.6-1.3-1.3s0.6-1.3,1.3-1.3S62,987.9,62,988.6z"/>
		<path class="st1" d="M62,992.1c0,0.7-0.6,1.3-1.3,1.3s-1.3-0.6-1.3-1.3s0.6-1.3,1.3-1.3S62,991.4,62,992.1z"/>
		<path class="st1" d="M62,995.6c0,0.7-0.6,1.3-1.3,1.3s-1.3-0.6-1.3-1.3s0.6-1.3,1.3-1.3S62,994.9,62,995.6z"/>
		<path class="st1" d="M62,999.1c0,0.7-0.6,1.3-1.3,1.3s-1.3-0.6-1.3-1.3s0.6-1.3,1.3-1.3S62,998.4,62,999.1z"/>
		<path class="st1" d="M62,1002.6c0,0.7-0.6,1.3-1.3,1.3s-1.3-0.6-1.3-1.3s0.6-1.3,1.3-1.3l0,0C61.4,1001.4,62,1001.9,62,1002.6
			L62,1002.6z"/>
		<path class="st1" d="M62,1006.1c0,0.7-0.6,1.3-1.3,1.3s-1.3-0.6-1.3-1.3s0.6-1.3,1.3-1.3S62,1005.4,62,1006.1z"/>
		<path class="st1" d="M62,1009.6c0,0.7-0.6,1.3-1.3,1.3s-1.3-0.6-1.3-1.3s0.6-1.3,1.2-1.3l0,0C61.4,1008.4,62,1008.9,62,1009.6
			L62,1009.6z"/>
		<path class="st1" d="M62,1013.1c0,0.7-0.6,1.3-1.3,1.3l0,0c-0.7,0-1.3-0.6-1.3-1.3l0,0c0-0.7,0.6-1.3,1.3-1.3S62,1012.4,62,1013.1
			z"/>
		<path class="st1" d="M62,1016.6c0,0.7-0.6,1.3-1.3,1.3s-1.3-0.6-1.3-1.3s0.6-1.3,1.3-1.3S62,1015.9,62,1016.6z"/>
		<path class="st1" d="M62,1020.1c0,0.7-0.6,1.3-1.3,1.3s-1.3-0.6-1.3-1.3s0.6-1.3,1.3-1.3S62,1019.4,62,1020.1z"/>
		<path class="st1" d="M62,1023.6c0,0.7-0.6,1.3-1.3,1.3l0,0c-0.7,0-1.3-0.6-1.3-1.3l0,0c0-0.7,0.6-1.3,1.3-1.3S62,1022.9,62,1023.6
			z"/>
		<path class="st1" d="M62,1027.1c0,0.7-0.6,1.3-1.3,1.3s-1.3-0.6-1.3-1.3s0.6-1.3,1.3-1.3S62,1026.4,62,1027.1z"/>
		<path class="st1" d="M62,1030.6c0,0.7-0.6,1.3-1.3,1.3s-1.3-0.6-1.3-1.3s0.6-1.3,1.3-1.3S62,1029.9,62,1030.6z"/>
		<path class="st1" d="M65.5,981.6c0,0.7-0.6,1.3-1.3,1.3c-0.7,0-1.3-0.6-1.3-1.3s0.6-1.3,1.3-1.3C64.9,980.4,65.5,980.9,65.5,981.6
			z"/>
		<path class="st1" d="M65.5,985.1c0,0.7-0.6,1.3-1.3,1.3c-0.7,0-1.3-0.6-1.3-1.3s0.6-1.2,1.3-1.2C64.9,983.9,65.5,984.4,65.5,985.1
			z"/>
		<path class="st1" d="M65.5,988.6c0,0.7-0.6,1.3-1.3,1.3c-0.7,0-1.3-0.6-1.3-1.3s0.6-1.3,1.3-1.3C64.9,987.4,65.5,987.9,65.5,988.6
			z"/>
		<path class="st1" d="M65.5,992.1c0,0.7-0.6,1.3-1.3,1.3c-0.7,0-1.3-0.6-1.3-1.3s0.6-1.3,1.3-1.3C64.9,990.9,65.5,991.4,65.5,992.1
			z"/>
		<path class="st1" d="M65.5,995.6c0,0.7-0.6,1.3-1.3,1.3c-0.7,0-1.3-0.6-1.3-1.3s0.6-1.3,1.3-1.3C64.9,994.4,65.5,994.9,65.5,995.6
			z"/>
		<path class="st1" d="M65.5,999.1c0,0.7-0.6,1.3-1.3,1.3c-0.7,0-1.3-0.6-1.3-1.3s0.6-1.3,1.3-1.3C64.9,997.9,65.5,998.4,65.5,999.1
			z"/>
		<path class="st1" d="M65.5,1002.6c0,0.7-0.6,1.3-1.3,1.3c-0.7,0-1.3-0.6-1.3-1.3s0.6-1.3,1.3-1.3l0,0
			C64.9,1001.4,65.5,1001.9,65.5,1002.6L65.5,1002.6z"/>
		<path class="st1" d="M65.5,1006.1c0,0.7-0.6,1.3-1.3,1.3c-0.7,0-1.3-0.6-1.3-1.3s0.6-1.3,1.3-1.3
			C64.9,1004.9,65.5,1005.4,65.5,1006.1z"/>
		<path class="st1" d="M65.5,1009.6c0,0.7-0.6,1.3-1.3,1.3c-0.7,0-1.3-0.6-1.3-1.3s0.6-1.3,1.2-1.3l0,0
			C64.9,1008.4,65.5,1008.9,65.5,1009.6L65.5,1009.6z"/>
		<path class="st1" d="M65.5,1013.1c0,0.7-0.6,1.3-1.3,1.3l0,0c-0.7,0-1.3-0.6-1.3-1.3l0,0c0-0.7,0.6-1.3,1.3-1.3
			C64.9,1011.9,65.5,1012.4,65.5,1013.1z"/>
		<path class="st1" d="M65.5,1016.6c0,0.7-0.6,1.3-1.3,1.3c-0.7,0-1.3-0.6-1.3-1.3s0.6-1.3,1.3-1.3
			C64.9,1015.4,65.5,1015.9,65.5,1016.6z"/>
		<path class="st1" d="M65.5,1020.1c0,0.7-0.6,1.3-1.3,1.3c-0.7,0-1.3-0.6-1.3-1.3s0.6-1.3,1.3-1.3
			C64.9,1018.9,65.5,1019.4,65.5,1020.1z"/>
		<path class="st1" d="M65.5,1023.6c0,0.7-0.6,1.3-1.3,1.3l0,0c-0.7,0-1.3-0.6-1.3-1.3l0,0c0-0.7,0.6-1.3,1.3-1.3
			C64.9,1022.4,65.5,1022.9,65.5,1023.6z"/>
		<path class="st1" d="M65.5,1027.1c0,0.7-0.6,1.3-1.3,1.3c-0.7,0-1.3-0.6-1.3-1.3s0.6-1.3,1.3-1.3
			C64.9,1025.9,65.5,1026.4,65.5,1027.1z"/>
		<path class="st1" d="M65.5,1030.6c0,0.7-0.6,1.3-1.3,1.3c-0.7,0-1.3-0.6-1.3-1.3s0.6-1.3,1.3-1.3
			C64.9,1029.4,65.5,1029.9,65.5,1030.6z"/>
		<path class="st1" d="M69,988.6c0,0.7-0.6,1.3-1.3,1.3s-1.3-0.6-1.3-1.3s0.6-1.3,1.3-1.3S69,987.9,69,988.6z"/>
		<path class="st1" d="M69,992.1c0,0.7-0.6,1.3-1.3,1.3s-1.3-0.6-1.3-1.3s0.6-1.3,1.3-1.3S69,991.4,69,992.1z"/>
		<path class="st1" d="M69,995.6c0,0.7-0.6,1.3-1.3,1.3s-1.3-0.6-1.3-1.3s0.6-1.3,1.3-1.3S69,994.9,69,995.6z"/>
		<path class="st1" d="M69,999.1c0,0.7-0.6,1.3-1.3,1.3s-1.3-0.6-1.3-1.3s0.6-1.3,1.3-1.3S69,998.4,69,999.1z"/>
		<path class="st1" d="M69,1002.6c0,0.7-0.6,1.3-1.3,1.3s-1.3-0.6-1.3-1.3s0.6-1.3,1.3-1.3l0,0C68.4,1001.4,69,1001.9,69,1002.6
			L69,1002.6z"/>
		<path class="st1" d="M69,1006.1c0,0.7-0.6,1.3-1.3,1.3s-1.3-0.6-1.3-1.3s0.6-1.3,1.3-1.3S69,1005.4,69,1006.1z"/>
		<path class="st1" d="M69,1009.6c0,0.7-0.6,1.3-1.3,1.3s-1.3-0.6-1.3-1.3s0.6-1.3,1.2-1.3l0,0C68.4,1008.4,69,1008.9,69,1009.6
			L69,1009.6z"/>
		<path class="st1" d="M69,1013.1c0,0.7-0.6,1.3-1.3,1.3l0,0c-0.7,0-1.3-0.6-1.3-1.3l0,0c0-0.7,0.6-1.3,1.3-1.3S69,1012.4,69,1013.1
			z"/>
		<path class="st1" d="M69,1016.6c0,0.7-0.6,1.3-1.3,1.3s-1.3-0.6-1.3-1.3s0.6-1.3,1.3-1.3S69,1015.9,69,1016.6z"/>
		<path class="st1" d="M69,1020.1c0,0.7-0.6,1.3-1.3,1.3s-1.3-0.6-1.3-1.3s0.6-1.3,1.3-1.3S69,1019.4,69,1020.1z"/>
		<path class="st1" d="M69,1023.6c0,0.7-0.6,1.3-1.3,1.3l0,0c-0.7,0-1.3-0.6-1.3-1.3l0,0c0-0.7,0.6-1.3,1.3-1.3S69,1022.9,69,1023.6
			z"/>
		<path class="st1" d="M69,1027.1c0,0.7-0.6,1.3-1.3,1.3s-1.3-0.6-1.3-1.3s0.6-1.3,1.3-1.3S69,1026.4,69,1027.1z"/>
		<path class="st1" d="M72.5,985.1c0,0.7-0.6,1.3-1.3,1.3s-1.3-0.6-1.3-1.3s0.6-1.2,1.3-1.2S72.5,984.4,72.5,985.1z"/>
		<path class="st1" d="M72.5,988.6c0,0.7-0.6,1.3-1.3,1.3s-1.3-0.6-1.3-1.3s0.6-1.3,1.3-1.3S72.5,987.9,72.5,988.6z"/>
		<path class="st1" d="M72.5,992.1c0,0.7-0.6,1.3-1.3,1.3s-1.3-0.6-1.3-1.3s0.6-1.3,1.3-1.3S72.5,991.4,72.5,992.1z"/>
		<path class="st1" d="M72.5,995.6c0,0.7-0.6,1.3-1.3,1.3s-1.3-0.6-1.3-1.3s0.6-1.3,1.3-1.3S72.5,994.9,72.5,995.6z"/>
		<path class="st1" d="M72.5,999.1c0,0.7-0.6,1.3-1.3,1.3s-1.3-0.6-1.3-1.3s0.6-1.3,1.3-1.3S72.5,998.4,72.5,999.1z"/>
		<path class="st1" d="M72.5,1002.6c0,0.7-0.6,1.3-1.3,1.3s-1.3-0.6-1.3-1.3s0.6-1.3,1.3-1.3l0,0
			C71.9,1001.4,72.5,1001.9,72.5,1002.6L72.5,1002.6z"/>
		<path class="st1" d="M72.5,1006.1c0,0.7-0.6,1.3-1.3,1.3s-1.3-0.6-1.3-1.3s0.6-1.3,1.3-1.3S72.5,1005.4,72.5,1006.1z"/>
		<path class="st1" d="M72.5,1009.6c0,0.7-0.6,1.3-1.3,1.3s-1.3-0.6-1.3-1.3s0.6-1.3,1.2-1.3l0,0
			C71.9,1008.4,72.5,1008.9,72.5,1009.6L72.5,1009.6z"/>
		<path class="st1" d="M72.5,1013.1c0,0.7-0.6,1.3-1.3,1.3l0,0c-0.7,0-1.3-0.6-1.3-1.3l0,0c0-0.7,0.6-1.3,1.3-1.3
			S72.5,1012.4,72.5,1013.1z"/>
		<path class="st1" d="M72.5,1016.6c0,0.7-0.6,1.3-1.3,1.3s-1.3-0.6-1.3-1.3s0.6-1.3,1.3-1.3S72.5,1015.9,72.5,1016.6z"/>
		<path class="st1" d="M72.5,1020.1c0,0.7-0.6,1.3-1.3,1.3s-1.3-0.6-1.3-1.3s0.6-1.3,1.3-1.3S72.5,1019.4,72.5,1020.1z"/>
		<path class="st1" d="M72.5,1023.6c0,0.7-0.6,1.3-1.3,1.3l0,0c-0.7,0-1.3-0.6-1.3-1.3l0,0c0-0.7,0.6-1.3,1.3-1.3
			S72.5,1022.9,72.5,1023.6z"/>
		<path class="st1" d="M72.5,1027.1c0,0.7-0.6,1.3-1.3,1.3s-1.3-0.6-1.3-1.3s0.6-1.3,1.3-1.3S72.5,1026.4,72.5,1027.1z"/>
		<path class="st1" d="M76,988.6c0,0.7-0.6,1.3-1.3,1.3s-1.3-0.6-1.3-1.3s0.6-1.3,1.3-1.3S76,987.9,76,988.6z"/>
		<path class="st1" d="M76,992.1c0,0.7-0.6,1.3-1.3,1.3s-1.3-0.6-1.3-1.3s0.6-1.3,1.3-1.3S76,991.4,76,992.1z"/>
		<path class="st1" d="M76,995.6c0,0.7-0.6,1.3-1.3,1.3s-1.3-0.6-1.3-1.3s0.6-1.3,1.3-1.3S76,994.9,76,995.6z"/>
		<path class="st1" d="M76,999.1c0,0.7-0.6,1.3-1.3,1.3s-1.3-0.6-1.3-1.3s0.6-1.3,1.3-1.3S76,998.4,76,999.1z"/>
		<path class="st1" d="M76,1002.6c0,0.7-0.6,1.3-1.3,1.3s-1.3-0.6-1.3-1.3s0.6-1.3,1.3-1.3l0,0C75.4,1001.4,76,1001.9,76,1002.6
			L76,1002.6z"/>
		<path class="st1" d="M76,1006.1c0,0.7-0.6,1.3-1.3,1.3s-1.3-0.6-1.3-1.3s0.6-1.3,1.3-1.3S76,1005.4,76,1006.1z"/>
		<path class="st1" d="M76,1009.6c0,0.7-0.6,1.3-1.3,1.3s-1.3-0.6-1.3-1.3s0.6-1.3,1.2-1.3l0,0C75.4,1008.4,76,1008.9,76,1009.6
			L76,1009.6z"/>
		<path class="st1" d="M76,1013.1c0,0.7-0.6,1.3-1.3,1.3l0,0c-0.7,0-1.3-0.6-1.3-1.3l0,0c0-0.7,0.6-1.3,1.3-1.3S76,1012.4,76,1013.1
			z"/>
		<path class="st1" d="M76,1016.6c0,0.7-0.6,1.3-1.3,1.3s-1.3-0.6-1.3-1.3s0.6-1.3,1.3-1.3S76,1015.9,76,1016.6z"/>
		<path class="st1" d="M76,1020.1c0,0.7-0.6,1.3-1.3,1.3s-1.3-0.6-1.3-1.3s0.6-1.3,1.3-1.3S76,1019.4,76,1020.1z"/>
		<path class="st1" d="M79.5,992.1c0,0.7-0.6,1.3-1.3,1.3s-1.3-0.6-1.3-1.3s0.6-1.3,1.3-1.3S79.5,991.4,79.5,992.1z"/>
		<path class="st1" d="M79.5,995.6c0,0.7-0.6,1.3-1.3,1.3s-1.3-0.6-1.3-1.3s0.6-1.3,1.3-1.3S79.5,994.9,79.5,995.6z"/>
		<path class="st1" d="M79.5,999.1c0,0.7-0.6,1.3-1.3,1.3s-1.3-0.6-1.3-1.3s0.6-1.3,1.3-1.3S79.5,998.4,79.5,999.1z"/>
		<path class="st1" d="M79.5,1002.6c0,0.7-0.6,1.3-1.3,1.3s-1.3-0.6-1.3-1.3s0.6-1.3,1.3-1.3l0,0
			C78.9,1001.4,79.5,1001.9,79.5,1002.6L79.5,1002.6z"/>
		<path class="st1" d="M79.5,1006.1c0,0.7-0.6,1.3-1.3,1.3s-1.3-0.6-1.3-1.3s0.6-1.3,1.3-1.3S79.5,1005.4,79.5,1006.1z"/>
		<path class="st1" d="M79.5,1009.6c0,0.7-0.6,1.3-1.3,1.3s-1.3-0.6-1.3-1.3s0.6-1.3,1.2-1.3l0,0
			C78.9,1008.4,79.5,1008.9,79.5,1009.6L79.5,1009.6z"/>
		<path class="st1" d="M79.5,1013.1c0,0.7-0.6,1.3-1.3,1.3l0,0c-0.7,0-1.3-0.6-1.3-1.3l0,0c0-0.7,0.6-1.3,1.3-1.3
			S79.5,1012.4,79.5,1013.1z"/>
		<path class="st1" d="M79.5,1016.6c0,0.7-0.6,1.3-1.3,1.3s-1.3-0.6-1.3-1.3s0.6-1.3,1.3-1.3S79.5,1015.9,79.5,1016.6z"/>
		<path class="st1" d="M83,995.6c0,0.7-0.6,1.3-1.3,1.3s-1.3-0.6-1.3-1.3s0.6-1.3,1.3-1.3S83,994.9,83,995.6z"/>
		<path class="st1" d="M83,999.1c0,0.7-0.6,1.3-1.3,1.3s-1.3-0.6-1.3-1.3s0.6-1.3,1.3-1.3S83,998.4,83,999.1z"/>
		<path class="st1" d="M83,1002.6c0,0.7-0.6,1.3-1.3,1.3s-1.3-0.6-1.3-1.3s0.6-1.3,1.3-1.3l0,0C82.4,1001.4,83,1001.9,83,1002.6
			L83,1002.6z"/>
		<path class="st1" d="M83,1006.1c0,0.7-0.6,1.3-1.3,1.3s-1.3-0.6-1.3-1.3s0.6-1.3,1.3-1.3S83,1005.4,83,1006.1z"/>
		<path class="st1" d="M83,1009.6c0,0.7-0.6,1.3-1.3,1.3s-1.3-0.6-1.3-1.3s0.6-1.3,1.2-1.3l0,0C82.4,1008.4,83,1008.9,83,1009.6
			L83,1009.6z"/>
		<path class="st1" d="M83,1013.1c0,0.7-0.6,1.3-1.3,1.3l0,0c-0.7,0-1.3-0.6-1.3-1.3l0,0c0-0.7,0.6-1.3,1.3-1.3S83,1012.4,83,1013.1
			z"/>
		<path class="st1" d="M83,1016.6c0,0.7-0.6,1.3-1.3,1.3s-1.3-0.6-1.3-1.3s0.6-1.3,1.3-1.3S83,1015.9,83,1016.6z"/>
		<path class="st1" d="M86.5,995.6c0,0.7-0.6,1.3-1.3,1.3s-1.3-0.6-1.3-1.3s0.6-1.3,1.3-1.3S86.5,994.9,86.5,995.6z"/>
		<path class="st1" d="M86.5,999.1c0,0.7-0.6,1.3-1.3,1.3s-1.3-0.6-1.3-1.3s0.6-1.3,1.3-1.3S86.5,998.4,86.5,999.1z"/>
		<path class="st1" d="M86.5,1002.6c0,0.7-0.6,1.3-1.3,1.3s-1.3-0.6-1.3-1.3s0.6-1.3,1.3-1.3l0,0
			C85.9,1001.4,86.5,1001.9,86.5,1002.6L86.5,1002.6z"/>
		<path class="st1" d="M86.5,1006.1c0,0.7-0.6,1.3-1.3,1.3s-1.3-0.6-1.3-1.3s0.6-1.3,1.3-1.3S86.5,1005.4,86.5,1006.1z"/>
		<path class="st1" d="M86.5,1009.6c0,0.7-0.6,1.3-1.3,1.3s-1.3-0.6-1.3-1.3s0.6-1.3,1.2-1.3l0,0
			C85.9,1008.4,86.5,1008.9,86.5,1009.6L86.5,1009.6z"/>
		<path class="st1" d="M90,999.1c0,0.7-0.6,1.3-1.3,1.3s-1.3-0.6-1.3-1.3s0.6-1.3,1.3-1.3S90,998.4,90,999.1z"/>
		<path class="st1" d="M90,1002.6c0,0.7-0.6,1.3-1.3,1.3s-1.3-0.6-1.3-1.3s0.6-1.3,1.3-1.3l0,0C89.4,1001.4,90,1001.9,90,1002.6
			L90,1002.6z"/>
	</g>
</g>
</svg>
